# xmcd
# 
# Track frame offsets:
#	150
#	14498
#	32556
#	44970
#	58616
#	70044
#	88691
#	104529
#	115736
#	129263
#
# Disc length: 1874 seconds
#
# Revision: 1
# Processed by: cddbd v1.4PL0 Copyright (c) Steve Scherf et al.
# Submitted via: Audio-CD-Archiv 2.10.446
#
DISCID=8607500a
DTITLE=R. B. Greaves - R. B. Greaves
DYEAR=1900
DGENRE=blues
TTITLE0=Always Something There To Remind Me
TTITLE1=Don't Play That Song (You lied)
TTITLE2=Take A Letter Maria
TTITLE3=Cupid
TTITLE4=This Is Soul
TTITLE5=Ballad Of Leroy
TTITLE6=Ain't That Good News
TTITLE7=Birmingham, Alabama
TTITLE8=Home To Stay
TTITLE9=Oh When I Was A Boy
EXTD=
EXTT0=
EXTT1=
EXTT2=
EXTT3=
EXTT4=
EXTT5=
EXTT6=
EXTT7=
EXTT8=
EXTT9=
PLAYORDER=
